<?xml version="1.0" encoding="UTF-8"?>
<svg version="1.1" xmlns="http://www.w3.org/2000/svg" width="1200" height="443">
<path d="M0 0 C3.98903553 3.56666706 6.57800786 7.78581594 9.4375 12.25 C20.39455313 28.98900057 33.49597303 45.24902455 49 58 C49.84433594 58.7321875 50.68867187 59.464375 51.55859375 60.21875 C65.2556107 71.96436019 79.96572574 81.74290755 96 90 C96.80920898 90.42023438 97.61841797 90.84046875 98.45214844 91.2734375 C143.02986722 114.17829884 194.66208134 121.61808917 244 113 C244.93537598 112.83902832 245.87075195 112.67805664 246.83447266 112.51220703 C300.91114793 102.83806732 352.19086694 72.47757219 386 29 C386.79921875 28.00613281 387.5984375 27.01226562 388.421875 25.98828125 C394.98747953 17.74771237 400.56076269 9.01524651 406 0 C409.64190504 0.68857049 412.47576581 2.22732118 415.69921875 4.02734375 C416.81901123 4.65020264 417.93880371 5.27306152 419.0925293 5.91479492 C420.29115868 6.58848613 421.48947681 7.26273138 422.6875 7.9375 C423.90600333 8.62150516 425.1245092 9.30550579 426.34301758 9.98950195 C428.76716888 11.35206077 431.18894147 12.71874003 433.609375 14.08789062 C436.58573232 15.76637785 439.57186329 17.42528795 442.5625 19.078125 C444.10486698 19.94667422 445.64659405 20.81636138 447.1875 21.6875 C447.89285889 22.07220459 448.59821777 22.45690918 449.32495117 22.85327148 C451.23046875 23.94921875 451.23046875 23.94921875 454 26 C454 30.59784998 452.57911905 32.97988558 450.25 36.75 C449.65251953 37.72984863 449.65251953 37.72984863 449.04296875 38.72949219 C444.19330859 46.51935152 438.66152285 53.78836827 433 61 C431.82244141 62.50046875 431.82244141 62.50046875 430.62109375 64.03125 C417.24706993 80.68298628 402.03132583 97.06837434 385 110 C383.8135063 110.92670476 382.62733044 111.85381655 381.44140625 112.78125 C356.88876599 131.79124648 329.35576145 146.84749885 300 157 C298.63343262 157.47276367 298.63343262 157.47276367 297.23925781 157.95507812 C275.90188399 165.18067166 253.4684274 170.15557686 231 172 C229.85273437 172.10957031 228.70546875 172.21914063 227.5234375 172.33203125 C151.29066167 178.67067669 75.56971373 154.19224634 16.92578125 105.3671875 C10.38951256 99.82333657 4.17044683 93.94462993 -2 88 C-2.86496094 87.17628906 -3.72992187 86.35257812 -4.62109375 85.50390625 C-9.37514466 80.88168345 -13.62138623 75.97407836 -17.76171875 70.796875 C-19.20115625 68.99820615 -20.66069712 67.21534695 -22.14453125 65.453125 C-47 35.89527027 -47 35.89527027 -47 27 C-46.33170166 26.6282666 -45.66340332 26.2565332 -44.97485352 25.87353516 C-29.85483092 17.45550765 -14.83193642 8.91614499 0 0 Z " fill="#008854" transform="translate(733,258)"/>
<path d="M0 0 C0.81903545 3.97784986 1.62902594 7.95749132 2.4375 11.9375 C2.78264648 13.61295898 2.78264648 13.61295898 3.13476562 15.32226562 C3.35712891 16.42119141 3.57949219 17.52011719 3.80859375 18.65234375 C4.01282959 19.65257568 4.21706543 20.65280762 4.42749023 21.68334961 C5.65109035 28.77188163 6.16759315 35.78165719 6.23828125 42.96875 C6.24812042 43.79842285 6.25795959 44.6280957 6.26809692 45.48291016 C6.44208396 63.96908717 6.30644385 81.91354625 2 100 C1.75330566 101.03995117 1.50661133 102.07990234 1.25244141 103.15136719 C-11.81104086 156.47988596 -44.64926283 203.40315311 -91.0625 233 C-93.36294115 234.36322438 -95.6671964 235.69480828 -98 237 C-98.80791992 237.45375 -99.61583984 237.9075 -100.44824219 238.375 C-150.27392422 266.05393222 -209.02654905 273.58989464 -264.0625 257.875 C-288.68091692 250.49210229 -311.55336381 239.57961574 -332 224 C-333.31871094 223.00033203 -333.31871094 223.00033203 -334.6640625 221.98046875 C-339.4616235 218.24141724 -344.07204203 214.28152983 -348.625 210.25 C-349.42574951 209.55982788 -349.42574951 209.55982788 -350.24267578 208.85571289 C-351.7265625 207.515625 -351.7265625 207.515625 -354 205 C-354 201 -354 201 -352.59533691 199.11431885 C-351.60938538 198.14169098 -351.60938538 198.14169098 -350.60351562 197.14941406 C-349.8627478 196.40894836 -349.12197998 195.66848267 -348.35876465 194.90557861 C-347.54943481 194.11689392 -346.74010498 193.32820923 -345.90625 192.515625 C-345.08499634 191.70003113 -344.26374268 190.88443726 -343.41760254 190.04412842 C-340.78762139 187.43657075 -338.14408565 184.84324707 -335.5 182.25 C-333.7165389 180.48659596 -331.93397491 178.72228412 -330.15234375 176.95703125 C-325.77859159 172.62742588 -321.39362449 168.30943277 -317 164 C-313.65487787 165.58671048 -311.4207417 167.35547175 -308.75 169.9375 C-302.03783175 176.07715978 -294.63050692 181.07357161 -287 186 C-286.42266113 186.37543945 -285.84532227 186.75087891 -285.25048828 187.13769531 C-252.504194 208.09145407 -210.65724496 213.43525167 -173 206 C-142.02184464 199.15605347 -115.12281745 183.72073144 -93 161 C-92.51660156 160.56171875 -92.03320312 160.1234375 -91.53515625 159.671875 C-68.31612047 138.03719695 -54.88625054 103.90924851 -51 73 C-50.88914062 72.13890625 -50.77828125 71.2778125 -50.6640625 70.390625 C-48.83996662 53.72726266 -49.76569264 36.37411339 -53.6328125 20.04296875 C-54.05997075 17.66633295 -54.02331884 15.4105231 -54 13 C-44.05999409 9.8237501 -34.03480515 7.03978312 -23.94873047 4.37084961 C-21.34256676 3.67888867 -18.7397351 2.97517993 -16.13671875 2.27148438 C-14.47415033 1.83000548 -12.81139661 1.3892237 -11.1484375 0.94921875 C-10.37349945 0.73786789 -9.5985614 0.52651703 -8.80014038 0.3087616 C-3.34271424 -1.11423808 -3.34271424 -1.11423808 0 0 Z " fill="#008854" transform="translate(1142,87)"/>
<path d="M0 0 C9.7944967 1.91512505 18.16791786 5.53459011 27 10 C28.47339844 10.72896484 28.47339844 10.72896484 29.9765625 11.47265625 C41.22972938 17.29381894 50.81855657 25.35036079 60 34 C60.66386719 34.59941406 61.32773438 35.19882812 62.01171875 35.81640625 C85.10203499 57.50163225 98.26567926 90.67822158 99.27734375 121.97265625 C99.53139396 135.18326722 99.52713683 148.19933394 96 161 C95.66935547 162.20414551 95.66935547 162.20414551 95.33203125 163.43261719 C88.7295216 186.60253532 77.48781444 205.49846821 61 223 C60.40058594 223.66386719 59.80117187 224.32773438 59.18359375 225.01171875 C43.08514421 242.15326437 20.55019245 253.31229577 -2 259 C-2.65226563 259.17499023 -3.30453125 259.34998047 -3.9765625 259.53027344 C-21.7769166 264.15433662 -52.18915665 266.40542167 -69 258 C-67.71722989 251.23055398 -66.19130799 244.56725873 -64.43359375 237.90625 C-64.19463882 236.99290894 -63.9556839 236.07956787 -63.70948792 235.1385498 C-63.20917592 233.2290429 -62.70744719 231.31990666 -62.2043457 229.41113281 C-61.43244997 226.48082888 -60.66612139 223.54910777 -59.90039062 220.6171875 C-59.41178554 218.75512244 -58.92286475 216.89314019 -58.43359375 215.03125 C-58.20441757 214.15424438 -57.97524139 213.27723877 -57.73912048 212.37365723 C-57.52542313 211.56521362 -57.31172577 210.75677002 -57.09155273 209.92382812 C-56.90439194 209.21230591 -56.71723114 208.50078369 -56.5243988 207.7677002 C-56 206 -56 206 -55 204 C-53.94941406 204.144375 -52.89882813 204.28875 -51.81640625 204.4375 C-28.80428126 207.52188212 -7.40257457 204.70059347 12 191 C29.26089855 177.405133 38.68940184 159.59212735 42.5390625 137.97265625 C44.88703184 118.06952078 38.76494682 97.29900219 26.77294922 81.37011719 C15.99960954 67.89829281 1.8724764 60.27312946 -14 54 C-13.37339787 47.67039705 -12.01332181 41.78574069 -10.3125 35.6640625 C-10.04993408 34.70349945 -9.78736816 33.7429364 -9.5168457 32.75326538 C-8.96466832 30.73730515 -8.40985675 28.72206476 -7.85253906 26.70751953 C-6.99729305 23.6152125 -6.15032298 20.52072873 -5.3046875 17.42578125 C-4.76610336 15.46341032 -4.22705728 13.50116609 -3.6875 11.5390625 C-3.43331299 10.61203522 -3.17912598 9.68500793 -2.91723633 8.72988892 C-2.68029053 7.87494843 -2.44334473 7.02000793 -2.19921875 6.13916016 C-1.99127686 5.38607574 -1.78333496 4.63299133 -1.5690918 3.85708618 C-1 2 -1 2 0 0 Z " fill="#008854" transform="translate(971,12)"/>
<path d="M0 0 C9.85638988 7.7283057 17.33541374 20.68033286 19.625 32.96484375 C21.46325805 50.17298157 18.34640438 64.64242581 8.24609375 78.94921875 C-0.17750641 89.264644 -13.76528513 97.17384398 -27.09375 98.59765625 C-44.4262532 99.62368181 -59.92914539 96.41997888 -73.34375 84.59765625 C-83.426264 75.2040299 -89.63369658 62.70125153 -90.40234375 48.92578125 C-90.99584876 31.87953897 -87.02316904 18.6991962 -76.03125 5.47265625 C-55.15417988 -16.73105044 -23.99970966 -16.0744324 0 0 Z " fill="#008854" transform="translate(972.09375,97.40234375)"/>
<path d="M0 0 C7.59 0 15.18 0 23 0 C23 25.08 23 50.16 23 76 C42.8 76 62.6 76 83 76 C83 50.92 83 25.84 83 0 C90.59 0 98.18 0 106 0 C106 58.08 106 116.16 106 176 C98.41 176 90.82 176 83 176 C83 149.6 83 123.2 83 96 C63.2 96 43.4 96 23 96 C23 122.4 23 148.8 23 176 C15.41 176 7.82 176 0 176 C0 117.92 0 59.84 0 0 Z " fill="#6A7070" transform="translate(467,48)"/>
<path d="M0 0 C7.59 0 15.18 0 23 0 C23.01981934 3.65271973 23.03963867 7.30543945 23.06005859 11.06884766 C23.12714345 23.17471245 23.20468359 35.28048945 23.28752708 47.38625526 C23.33747308 54.7216754 23.38391669 62.05708535 23.421875 69.39257812 C23.45500046 75.7923466 23.49494201 82.19203165 23.54279006 88.59170759 C23.56785276 91.97469429 23.58969144 95.35762711 23.60334396 98.74068069 C22.57467028 126.36917547 22.57467028 126.36917547 32.75390625 151.1953125 C39.28306355 157.50023612 46.63325613 159.11451986 55.5 159.375 C63.93817003 159.13674579 71.29669469 157.70810298 77.5390625 151.71484375 C88.06020455 139.36516097 87.12161869 120.01512963 87.20532227 104.78393555 C87.21522186 103.64086945 87.22512146 102.49780334 87.23532104 101.32009888 C87.26656974 97.59232559 87.29154648 93.86453963 87.31640625 90.13671875 C87.33700753 87.53212681 87.35800476 84.92753798 87.37937927 82.32295227 C87.42896673 76.19998818 87.47402905 70.07699978 87.51740164 63.95398885 C87.56706732 56.97434797 87.62187507 49.99475029 87.67708123 43.01515138 C87.79037899 28.67680701 87.89664986 14.33841945 88 0 C95.59 0 103.18 0 111 0 C111.04534181 15.48283356 111.0821018 30.96563366 111.10362434 46.44851589 C111.11388819 53.63928562 111.12785358 60.83001083 111.15087891 68.02075195 C111.17096406 74.29633765 111.18375186 80.57189106 111.18817699 86.84750801 C111.19075909 90.16301182 111.1978124 93.47840312 111.21146011 96.79388237 C111.42236593 150.19609 111.42236593 150.19609 94.78515625 167.2734375 C83.39556781 177.20471559 70.47609516 179.1870964 55.9375 179.25 C54.19049805 179.2809375 54.19049805 179.2809375 52.40820312 179.3125 C38.57389619 179.37415708 25.44185653 176.38479084 15.125 166.625 C2.08524864 152.2812735 -0.34481951 132.55037203 -0.22705078 113.8659668 C-0.22734283 112.62536499 -0.22763489 111.38476318 -0.22793579 110.10656738 C-0.22679257 106.74990619 -0.21685892 103.3935002 -0.20278788 100.03688407 C-0.19016696 96.51221219 -0.18910116 92.98753584 -0.18673706 89.46284485 C-0.18055531 82.80858552 -0.16418993 76.154393 -0.14403808 69.5001629 C-0.12157532 61.91597648 -0.11065973 54.33178664 -0.10064721 46.74757516 C-0.07982021 31.16500499 -0.04318606 15.58252669 0 0 Z " fill="#696F70" transform="translate(709,48)"/>
<path d="M0 0 C29.04 0 58.08 0 88 0 C88 6.6 88 13.2 88 20 C66.88 20 45.76 20 24 20 C24 38.48 24 56.96 24 76 C44.13 76 64.26 76 85 76 C85 82.6 85 89.2 85 96 C64.87 96 44.74 96 24 96 C24 122.4 24 148.8 24 176 C16.08 176 8.16 176 0 176 C0 117.92 0 59.84 0 0 Z " fill="#6A7070" transform="translate(603,48)"/>
<path d="M0 0 C2.31 0 4.62 0 7 0 C8.44183243 4.12962571 9.57208948 8.22040848 10.5078125 12.4921875 C10.77207031 13.69101563 11.03632813 14.88984375 11.30859375 16.125 C11.57800781 17.3625 11.84742188 18.6 12.125 19.875 C12.40214844 21.13570312 12.67929688 22.39640625 12.96484375 23.6953125 C13.64611147 26.79625522 14.32439698 29.89781908 15 33 C16.94874034 29.5505056 17.81613192 26.10966523 18.7265625 22.265625 C18.87910492 21.62759949 19.03164734 20.98957397 19.18881226 20.33221436 C19.67216497 18.30587613 20.14867263 16.27799987 20.625 14.25 C20.95267358 12.87098641 21.28079375 11.49207885 21.609375 10.11328125 C22.41142478 6.74339984 23.20734613 3.37210543 24 0 C26.64 0 29.28 0 32 0 C33.69957331 3.88977816 34.66553965 7.67559783 35.5078125 11.83203125 C35.90419922 13.77045898 35.90419922 13.77045898 36.30859375 15.74804688 C36.58083085 17.10284415 36.85296499 18.45766213 37.125 19.8125 C37.40451891 21.18693627 37.68446252 22.56128625 37.96484375 23.93554688 C38.64741066 27.28953946 39.32563466 30.64435046 40 34 C41.40256851 29.96464557 42.53742199 25.96446649 43.47265625 21.796875 C43.73240234 20.6521875 43.99214844 19.5075 44.25976562 18.328125 C44.52466797 17.14734375 44.78957031 15.9665625 45.0625 14.75 C45.5927149 12.39009867 46.12515234 10.03069524 46.66015625 7.671875 C46.89355713 6.6312793 47.12695801 5.59068359 47.36743164 4.51855469 C48 2 48 2 49 0 C51.31 0 53.62 0 56 0 C54.61940166 8.91246168 52.39350159 17.54811685 50.05883789 26.24633789 C49.4306492 28.58803773 48.80958859 30.9315466 48.18945312 33.27539062 C47.79207666 34.76833836 47.39430503 36.26118097 46.99609375 37.75390625 C46.71795082 38.80222374 46.71795082 38.80222374 46.43418884 39.87171936 C45.11610003 44.76779993 45.11610003 44.76779993 44 47 C41.36 47 38.72 47 36 47 C33.36 35.45 30.72 23.9 28 12 C25.4095664 22.76962389 25.4095664 22.76962389 22.82446289 33.54052734 C22.4990541 34.88904409 22.1734643 36.23751717 21.84765625 37.5859375 C21.68003784 38.28823486 21.51241943 38.99053223 21.33972168 39.71411133 C20.1140718 44.7718564 20.1140718 44.7718564 19 47 C16.36 47 13.72 47 11 47 C9.43020927 40.62871916 7.86399292 34.25656748 6.30029297 27.88378906 C5.76759362 25.71463992 5.23406748 23.54569366 4.69970703 21.37695312 C3.93305989 18.26484935 3.16936091 15.15203501 2.40625 12.0390625 C2.16563843 11.065065 1.92502686 10.0910675 1.67712402 9.08755493 C1.45689575 8.18677216 1.23666748 7.28598938 1.00976562 6.35791016 C0.81435181 5.56293121 0.61893799 4.76795227 0.41760254 3.94888306 C0 2 0 2 0 0 Z " fill="#696F70" transform="translate(147,113)"/>
<path d="M0 0 C2.97 0 5.94 0 9 0 C13.95 10.89 18.9 21.78 24 33 C24.33 22.11 24.66 11.22 25 0 C27.31 0 29.62 0 32 0 C32.02527002 6.53278786 32.04283292 13.06556321 32.05493164 19.59838867 C32.05997317 21.82267732 32.06680623 24.04696263 32.07543945 26.27124023 C32.08751298 29.46078309 32.09322996 32.65028229 32.09765625 35.83984375 C32.10281754 36.84087631 32.10797882 37.84190887 32.11329651 38.87327576 C32.11337204 39.79415482 32.11344757 40.71503387 32.11352539 41.66381836 C32.115746 42.47878281 32.11796661 43.29374725 32.12025452 44.13340759 C32 46 32 46 31 47 C28.32941149 47.14115161 25.67567762 47.04247107 23 47 C17.27360832 35.82135241 12.03486535 24.50826365 7 13 C6.67 24.22 6.34 35.44 6 47 C4.02 47 2.04 47 0 47 C0 31.49 0 15.98 0 0 Z " fill="#687071" transform="translate(248,113)"/>
<path d="M0 0 C3.3 0 6.6 0 10 0 C14.95 10.89 19.9 21.78 25 33 C25.33 22.11 25.66 11.22 26 0 C27.98 0 29.96 0 32 0 C32 15.18 32 30.36 32 46 C29.03 46 26.06 46 23 46 C18.05 35.11 13.1 24.22 8 13 C7.67 23.89 7.34 34.78 7 46 C4.69 46 2.38 46 0 46 C0 30.82 0 15.64 0 0 Z " fill="#696E6F" transform="translate(116,176)"/>
<path d="M0 0 C3.3 0 6.6 0 10 0 C14.95 11.22 19.9 22.44 25 34 C25.33 22.78 25.66 11.56 26 0 C27.98 0 29.96 0 32 0 C32 15.51 32 31.02 32 47 C29.03 47 26.06 47 23 47 C21.202776 42.99846717 19.40633716 38.99658304 17.6105957 34.99438477 C17.0007805 33.63556617 16.39075834 32.27684043 15.78051758 30.91821289 C14.89869397 28.95483947 14.01763828 26.99112294 13.13671875 25.02734375 C12.60780029 23.84906006 12.07888184 22.67077637 11.53393555 21.45678711 C9.99298546 17.98419244 8.49655333 14.49195777 7 11 C6.67 22.88 6.34 34.76 6 47 C4.02 47 2.04 47 0 47 C0 31.49 0 15.98 0 0 Z " fill="#696F70" transform="translate(364,113)"/>
<path d="M0 0 C18 0 18 0 25 3 C28.02210285 7.02390489 27.6494776 12.19688656 27 17 C25.90965608 19.40823788 24.72206345 20.95504966 23 23 C23.47993408 23.56170898 23.95986816 24.12341797 24.4543457 24.70214844 C26.17202199 27.255737 26.47752496 28.73029958 26.73046875 31.765625 C26.81103516 32.65507812 26.89160156 33.54453125 26.97460938 34.4609375 C27.04486328 35.38132813 27.11511719 36.30171875 27.1875 37.25 C27.3102832 38.65378906 27.3102832 38.65378906 27.43554688 40.0859375 C27.63538005 42.38989647 27.8230939 44.69418616 28 47 C25.69 47 23.38 47 21 47 C19.0661638 43.13232759 19.19528654 38.31560726 18.75 34.03320312 C18.66760354 30.19873571 18.66760354 30.19873571 17 27 C13.7 26.67 10.4 26.34 7 26 C7 32.93 7 39.86 7 47 C4.69 47 2.38 47 0 47 C0 31.49 0 15.98 0 0 Z M7 6 C7 10.62 7 15.24 7 20 C12.91665803 20.35561547 12.91665803 20.35561547 18.5625 19 C20.51831868 16.27886096 20.57120525 14.17380783 20.37109375 10.875 C20.10622499 8.85598685 20.10622499 8.85598685 18.5625 7 C14.65036006 5.47331124 11.18295601 5.81545782 7 6 Z " fill="#6A6F71" transform="translate(82,113)"/>
<path d="M0 0 C3.54030262 3.21845693 5.82556959 6.34112063 6.56420898 11.12304688 C6.56235596 12.26837891 6.56050293 13.41371094 6.55859375 14.59375 C6.55923828 15.85574219 6.55988281 17.11773437 6.56054688 18.41796875 C6.54056641 19.72378906 6.52058594 21.02960938 6.5 22.375 C6.50708984 23.68082031 6.51417969 24.98664063 6.52148438 26.33203125 C6.47893446 32.74070337 6.40069374 37.24826916 3.0625 42.875 C-1.16383131 46.70511275 -5.1493234 47.165334 -10.65234375 47.09375 C-14.92832044 46.68442574 -17.8506937 45.03675845 -20.75 41.9375 C-24.113942 36.0948639 -23.16010026 29.02113756 -23.1875 22.5 C-23.208125 21.28054687 -23.22875 20.06109375 -23.25 18.8046875 C-23.25515625 17.62390625 -23.2603125 16.443125 -23.265625 15.2265625 C-23.2749707 14.15229004 -23.28431641 13.07801758 -23.29394531 11.97119141 C-22.79890732 7.67114219 -21.18905594 4.38729676 -18.4375 1.0625 C-13.69081993 -2.69528839 -5.34982927 -2.04887079 0 0 Z M-15.9375 8.875 C-16.55026668 11.78086608 -16.55026668 11.78086608 -16.46875 14.99609375 C-16.47390625 16.17880859 -16.4790625 17.36152344 -16.484375 18.58007812 C-16.46890625 19.81177734 -16.4534375 21.04347656 -16.4375 22.3125 C-16.45296875 23.54033203 -16.4684375 24.76816406 -16.484375 26.03320312 C-16.47921875 27.21720703 -16.4740625 28.40121094 -16.46875 29.62109375 C-16.46423828 30.70060303 -16.45972656 31.7801123 -16.45507812 32.89233398 C-15.81440808 36.58434621 -14.59199088 38.26587743 -11.9375 40.875 C-8.4375 41.70833333 -8.4375 41.70833333 -4.9375 40.875 C-2.28300912 38.26587743 -1.06059192 36.58434621 -0.41992188 32.89233398 C-0.41541016 31.81282471 -0.41089844 30.73331543 -0.40625 29.62109375 C-0.39851563 27.84508789 -0.39851563 27.84508789 -0.390625 26.03320312 C-0.40609375 24.80537109 -0.4215625 23.57753906 -0.4375 22.3125 C-0.41429687 20.46495117 -0.41429687 20.46495117 -0.390625 18.58007812 C-0.39578125 17.39736328 -0.4009375 16.21464844 -0.40625 14.99609375 C-0.41076172 13.9177124 -0.41527344 12.83933105 -0.41992188 11.72827148 C-1.05995751 8.1999241 -2.10183336 7.01410376 -4.9375 4.875 C-10.27411081 4.11262703 -12.6416489 4.60396367 -15.9375 8.875 Z " fill="#696F70" transform="translate(76.9375,51.125)"/>
<path d="M0 0 C2.8982005 3.5129703 3.42749227 7.06442361 4.0625 11.5 C1.4225 11.5 -1.2175 11.5 -3.9375 11.5 C-4.5975 9.52 -5.2575 7.54 -5.9375 5.5 C-9.19389659 4.55728998 -9.19389659 4.55728998 -12.9375 4.5 C-15.88906677 6.18997889 -15.88906677 6.18997889 -17.9375 9.5 C-18.60241439 13.34940499 -18.49898745 17.10533541 -18.375 21 C-18.36919922 22.03253906 -18.36339844 23.06507813 -18.35742188 24.12890625 C-18.27830641 29.03406514 -18.20095442 33.04742939 -15.9375 37.5 C-11.36529548 39.83926743 -7.88668738 39.48983748 -2.9375 38.5 C-2.9375 34.21 -2.9375 29.92 -2.9375 25.5 C-5.9075 25.5 -8.8775 25.5 -11.9375 25.5 C-11.9375 23.52 -11.9375 21.54 -11.9375 19.5 C-6.9875 19.5 -2.0375 19.5 3.0625 19.5 C3.0625 27.09 3.0625 34.68 3.0625 42.5 C-2.54227199 45.302386 -4.56070525 45.93150677 -10.5 45.9375 C-11.78003906 45.95683594 -13.06007813 45.97617188 -14.37890625 45.99609375 C-18.44963296 45.42860495 -20.04989501 44.3555798 -22.9375 41.5 C-26.8529222 35.6268667 -26.12025259 27.8370583 -26.125 21.0625 C-26.13724609 20.14662109 -26.14949219 19.23074219 -26.16210938 18.28710938 C-26.17685664 11.4394633 -26.13179942 5.7940403 -21.1875 0.625 C-14.74020206 -3.59054096 -6.82279317 -3.48397949 0 0 Z " fill="#696F70" transform="translate(315.9375,114.5)"/>
<path d="M0 0 C20 0 20 0 25 3 C27.69095686 7.01598728 27.80729797 11.32864473 27 16 C25.5848982 18.70200623 23.99635921 20.65427793 22 23 C22.66 23 23.32 23 24 23 C25.62332428 25.90003127 26.32053986 28.24570706 26.6328125 31.546875 C26.75849609 32.81337891 26.75849609 32.81337891 26.88671875 34.10546875 C26.96535156 34.97816406 27.04398437 35.85085937 27.125 36.75 C27.21136719 37.63816406 27.29773438 38.52632812 27.38671875 39.44140625 C27.59823066 41.62702936 27.80240227 43.81308238 28 46 C25.69 46 23.38 46 21 46 C19.03032712 41.14147356 18.66334731 36.66451957 18.44140625 31.48828125 C18.1743168 28.60158824 18.1743168 28.60158824 15 26 C12.03 25.67 9.06 25.34 6 25 C6 31.93 6 38.86 6 46 C4.02 46 2.04 46 0 46 C0 30.82 0 15.64 0 0 Z M6 6 C6 10.29 6 14.58 6 19 C7.753125 19.0825 9.50625 19.165 11.3125 19.25 C12.79169922 19.31960937 12.79169922 19.31960937 14.30078125 19.390625 C17.10434581 19.25901713 17.10434581 19.25901713 18.83203125 17.17578125 C20.40383221 14.24771057 20.41812543 12.27531584 20 9 C18.89124966 7.21846675 18.89124966 7.21846675 17 6 C14.25756437 5.63729516 14.25756437 5.63729516 11.3125 5.8125 C9.559375 5.874375 7.80625 5.93625 6 6 Z " fill="#696F70" transform="translate(249,176)"/>
<path d="M0 0 C2.31 0 4.62 0 7 0 C7 6.27 7 12.54 7 19 C11.95 19 16.9 19 22 19 C22 12.73 22 6.46 22 0 C24.31 0 26.62 0 29 0 C29 15.18 29 30.36 29 46 C26.69 46 24.38 46 22 46 C22 39.07 22 32.14 22 25 C17.05 25 12.1 25 7 25 C7 31.93 7 38.86 7 46 C4.69 46 2.38 46 0 46 C0 30.82 0 15.64 0 0 Z " fill="#697071" transform="translate(255,51)"/>
<path d="M0 0 C2.97 0 5.94 0 9 0 C11.00135237 6.04815985 12.99496772 12.09879375 14.98144531 18.15185547 C15.65835737 20.21082334 16.33738118 22.26909818 17.01855469 24.32666016 C17.99709739 27.28368498 18.96802717 30.24311609 19.9375 33.203125 C20.24373291 34.12305237 20.54996582 35.04297974 20.86547852 35.99078369 C21.28591431 37.28166901 21.28591431 37.28166901 21.71484375 38.59863281 C21.96355225 39.35364075 22.21226074 40.10864868 22.46850586 40.88653564 C23 43 23 43 23 47 C20.69 47 18.38 47 16 47 C15.49384702 45.73160474 14.99530901 44.46016898 14.5 43.1875 C14.2215625 42.47980469 13.943125 41.77210938 13.65625 41.04296875 C13 39 13 39 13 36 C7.39 36 1.78 36 -4 36 C-4.99 39.63 -5.98 43.26 -7 47 C-9.31 47 -11.62 47 -14 47 C-12.72752365 40.81109604 -11.11196703 34.82201218 -9.1796875 28.80859375 C-8.91616486 27.97787857 -8.65264221 27.14716339 -8.38113403 26.29127502 C-7.54938636 23.67217866 -6.71229397 21.05482788 -5.875 18.4375 C-5.3056333 16.64789977 -4.73661963 14.85818719 -4.16796875 13.06835938 C-2.78271929 8.71093141 -1.39267816 4.35505908 0 0 Z M4 9 C1.17476449 15.86128624 -0.41426694 22.75093459 -2 30 C2.29 30 6.58 30 11 30 C9.02 23.07 7.04 16.14 5 9 C4.67 9 4.34 9 4 9 Z " fill="#696F70" transform="translate(217,113)"/>
<path d="M0 0 C1.32 0 2.64 0 4 0 C4 58.08 4 116.16 4 176 C2.68 176 1.36 176 0 176 C0 117.92 0 59.84 0 0 Z " fill="#6A7070" transform="translate(428,48)"/>
<path d="M0 0 C2.31 0 4.62 0 7 0 C7.01458252 1.06959961 7.02916504 2.13919922 7.04418945 3.24121094 C7.10222301 7.21485594 7.17945519 11.18793725 7.26245117 15.16113281 C7.29567681 16.87978965 7.32371616 18.59855499 7.34643555 20.31738281 C7.38002561 22.79018323 7.43234178 25.26199156 7.48828125 27.734375 C7.49467117 28.50118591 7.5010611 29.26799683 7.50764465 30.05804443 C7.59666495 33.29810259 7.79678722 35.63581531 9.390625 38.4921875 C10.91696058 40.19898497 10.91696058 40.19898497 13.26171875 40.390625 C14.06222656 40.34421875 14.86273438 40.2978125 15.6875 40.25 C16.89986328 40.19585937 16.89986328 40.19585937 18.13671875 40.140625 C18.75160156 40.09421875 19.36648437 40.0478125 20 40 C21.12550137 35.92215064 21.22471618 31.9413442 21.31640625 27.734375 C21.33718735 26.94097717 21.35796844 26.14757935 21.37937927 25.33013916 C21.44459973 22.80351156 21.50363144 20.27678279 21.5625 17.75 C21.6057114 16.03384384 21.64932653 14.31769778 21.69335938 12.6015625 C21.80025283 8.40114454 21.90159729 4.20062511 22 0 C24.31 0 26.62 0 29 0 C29.07440448 5.15947346 29.12872191 10.31863151 29.16479492 15.47851562 C29.17983995 17.23215173 29.20028104 18.98575047 29.22631836 20.73925781 C29.26289121 23.26637009 29.2797692 25.79298296 29.29296875 28.3203125 C29.30845261 29.09867462 29.32393646 29.87703674 29.33988953 30.6789856 C29.34161549 36.31796475 28.18826775 40.35584314 24.5 44.8125 C20.24010539 48.18491657 14.1142814 47.5121598 9 47 C4.30785449 44.90529218 2.51442556 42.72511178 0.59994507 38.00265503 C-0.45066695 34.49564489 -0.36785602 31.07518019 -0.29296875 27.44140625 C-0.28872391 26.65225327 -0.28447906 25.86310028 -0.28010559 25.05003357 C-0.26344452 22.55382739 -0.22581779 20.05845808 -0.1875 17.5625 C-0.17243683 15.86003778 -0.15875129 14.15756279 -0.14648438 12.45507812 C-0.1135825 8.3030678 -0.06188951 4.1516753 0 0 Z " fill="#6A6F70" transform="translate(76,176)"/>
<path d="M0 0 C2.43040905 2.13581401 3.75156791 3.84565369 5.0625 6.8125 C5.25 10.125 5.25 10.125 5.0625 12.8125 C2.7525 12.8125 0.4425 12.8125 -1.9375 12.8125 C-2.5975 10.8325 -3.2575 8.8525 -3.9375 6.8125 C-8.55383979 5.67075681 -8.55383979 5.67075681 -12.9375 6.875 C-14.48591972 9.8750632 -13.90679013 11.63052706 -12.9375 14.8125 C-10.16082475 17.06384891 -10.16082475 17.06384891 -6.6875 18.8125 C2.5949073 24.15149157 2.5949073 24.15149157 5.0625 28.8125 C5.88672735 33.97155269 5.91032636 38.2146734 3.4375 42.875 C-1.2002985 46.65846719 -5.93965743 47.22510661 -11.7578125 47.05859375 C-15.07954816 46.68355908 -17.22368656 45.75093817 -19.9375 43.8125 C-22.65870171 39.73069743 -23.28489006 36.67596089 -22.9375 31.8125 C-20.6275 31.8125 -18.3175 31.8125 -15.9375 31.8125 C-15.669375 32.76125 -15.40125 33.71 -15.125 34.6875 C-14.18763412 38.06517273 -14.18763412 38.06517273 -10.9375 39.8125 C-6.59579096 39.7193565 -6.59579096 39.7193565 -2.9375 37.8125 C-2.43679679 34.43892666 -2.43679679 34.43892666 -2.9375 30.8125 C-5.13979811 28.38997208 -7.58063689 27.02104898 -10.390625 25.37890625 C-11.71320313 24.60353516 -11.71320313 24.60353516 -13.0625 23.8125 C-13.91070312 23.338125 -14.75890625 22.86375 -15.6328125 22.375 C-18.74858878 20.2626093 -20.50782651 18.30819886 -21.5546875 14.6640625 C-22.1488663 9.5325183 -22.14270001 6.15502904 -18.9375 1.8125 C-13.39053477 -2.24625505 -6.28253976 -2.53975012 0 0 Z " fill="#686E6F" transform="translate(198.9375,51.1875)"/>
<path d="M0 0 C2.31 0 4.62 0 7 0 C7.01981934 1.00377686 7.03963867 2.00755371 7.06005859 3.04174805 C7.13633749 6.77864966 7.22501986 10.51517317 7.31738281 14.25170898 C7.35558072 15.8665417 7.39044945 17.48145684 7.421875 19.09643555 C7.46772609 21.42266217 7.52568584 23.74832592 7.5859375 26.07421875 C7.59748871 26.79212082 7.60903992 27.51002289 7.62094116 28.24967957 C7.73711633 32.22745738 8.11854346 35.46150766 10 39 C12.79870027 40.39935013 14.90498792 40.25265405 18 40 C20.55949546 38.14657225 20.97918798 37.06243607 22 34 C22.15322359 31.41669771 22.25706889 28.85507761 22.31640625 26.26953125 C22.33718735 25.51911057 22.35796844 24.76868988 22.37937927 23.99552917 C22.44469926 21.60127816 22.50367792 19.20691861 22.5625 16.8125 C22.60570193 15.18813987 22.64931676 13.56379067 22.69335938 11.93945312 C22.80036263 7.95974629 22.90167937 3.97993042 23 0 C25.31 0 27.62 0 30 0 C30.04988404 4.3924818 30.08594581 8.78480824 30.10986328 13.17749023 C30.1198467 14.6680794 30.13343822 16.15864936 30.15087891 17.64916992 C30.38272485 37.99024229 30.38272485 37.99024229 25.625 44 C20.9309629 47.57640922 15.73167311 47.54729518 10 47 C6.32093808 45.70551525 4.54951097 44.72004886 2.1875 41.625 C-0.11390592 36.53768166 -0.1372446 31.58070772 -0.09765625 26.07421875 C-0.0962413 25.32662796 -0.09482635 24.57903717 -0.09336853 23.80879211 C-0.08779764 21.43498635 -0.0752506 19.06127697 -0.0625 16.6875 C-0.05748123 15.07226699 -0.05291899 13.4570325 -0.04882812 11.84179688 C-0.03783775 7.89449445 -0.02059332 3.94726353 0 0 Z " fill="#696F70" transform="translate(297,51)"/>
<path d="M0 0 C1.98 0 3.96 0 6 0 C6 6.27 6 12.54 6 19 C10.95 19 15.9 19 21 19 C21 12.73 21 6.46 21 0 C23.31 0 25.62 0 28 0 C28 15.18 28 30.36 28 46 C25.69 46 23.38 46 21 46 C21 39.07 21 32.14 21 25 C16.05 25 11.1 25 6 25 C6 31.93 6 38.86 6 46 C4.02 46 2.04 46 0 46 C0 30.82 0 15.64 0 0 Z " fill="#697071" transform="translate(136,51)"/>
<path d="M0 0 C2.31 0 4.62 0 7 0 C7 6.27 7 12.54 7 19 C11.95 19 16.9 19 22 19 C22 12.73 22 6.46 22 0 C23.98 0 25.96 0 28 0 C28 15.18 28 30.36 28 46 C26.02 46 24.04 46 22 46 C22 39.07 22 32.14 22 25 C17.05 25 12.1 25 7 25 C7 31.93 7 38.86 7 46 C4.69 46 2.38 46 0 46 C0 30.82 0 15.64 0 0 Z " fill="#697071" transform="translate(12,51)"/>
<path d="M0 0 C3.44145876 3.18334935 4.41848418 5.47839405 4.625 10.125 C4.58375 10.846875 4.5425 11.56875 4.5 12.3125 C2.19 12.3125 -0.12 12.3125 -2.5 12.3125 C-3.16 10.3325 -3.82 8.3525 -4.5 6.3125 C-9.11633979 5.17075681 -9.11633979 5.17075681 -13.5 6.375 C-14.67618208 8.37043597 -14.67618208 8.37043597 -14.8125 11.125 C-12.99391627 15.5415605 -10.24456634 16.56582108 -6.15234375 18.796875 C-2.08928394 21.11862346 2.36261243 24.03772487 4.5 28.3125 C4.91654299 32.83839985 5.01073318 36.97891891 3.375 41.25 C0.27435821 44.66070597 -2.52067162 46.07097481 -7.125 46.6328125 C-11.75561243 46.82156029 -14.82848804 46.63058461 -19.0625 44.625 C-22.64749249 41.22385328 -23.44017965 38.89773925 -23.625 34 C-23.58375 33.113125 -23.5425 32.22625 -23.5 31.3125 C-21.19 31.3125 -18.88 31.3125 -16.5 31.3125 C-16.21125 32.446875 -15.9225 33.58125 -15.625 34.75 C-15.25375 35.925625 -14.8825 37.10125 -14.5 38.3125 C-11.72899606 39.69800197 -9.5665294 39.5002467 -6.5 39.3125 C-3.17258477 37.58967692 -3.17258477 37.58967692 -2.75 34.0625 C-3.10987945 30.34302406 -3.10987945 30.34302406 -5.3046875 28.66015625 C-7.65420001 27.1056808 -10.04454158 25.69269231 -12.5 24.3125 C-20.94765343 18.96953971 -20.94765343 18.96953971 -22.5 14.3125 C-22.94992774 8.23847544 -21.9165311 5.13178628 -18 0.5625 C-13.14583487 -3.48263761 -5.26457628 -2.53827785 0 0 Z " fill="#6A6F70" transform="translate(307.5,176.6875)"/>
<path d="M0 0 C2.31 0 4.62 0 7 0 C7.01981934 1.06959961 7.03963867 2.13919922 7.06005859 3.24121094 C7.1362098 7.21475512 7.22491242 11.18793766 7.31738281 15.16113281 C7.35563327 16.87981011 7.39049303 18.59856638 7.421875 20.31738281 C7.46761128 22.7900004 7.52559084 25.26207613 7.5859375 27.734375 C7.59748871 28.50118591 7.60903992 29.26799683 7.62094116 30.05804443 C7.71822325 35.36233326 7.71822325 35.36233326 10 40 C13.03143066 40.92260933 15.15082353 41.18870588 18.25 40.5 C21.73419451 37.51354757 21.94586675 32.63364093 22.31884766 28.26782227 C22.35026855 26.96385498 22.38168945 25.6598877 22.4140625 24.31640625 C22.43342865 23.61603745 22.4527948 22.91566864 22.4727478 22.19407654 C22.53194891 19.98367019 22.57868725 17.77321005 22.625 15.5625 C22.66323476 14.05271319 22.70228958 12.5429469 22.7421875 11.03320312 C22.8375997 7.35565801 22.92184699 3.67795706 23 0 C24.98 0 26.96 0 29 0 C29.09945752 5.12282759 29.17174409 10.24508354 29.21972656 15.36865234 C29.23974522 17.10866089 29.26696886 18.84860299 29.30175781 20.58837891 C29.35070952 23.10075346 29.37306587 25.61223275 29.390625 28.125 C29.41127014 28.89303955 29.43191528 29.6610791 29.45318604 30.45239258 C29.45541407 35.91078414 28.37948435 40.59090238 25 45 C21.49792964 47.16521549 18.66306422 47.29827839 14.5625 47.3125 C13.45003906 47.32925781 12.33757813 47.34601563 11.19140625 47.36328125 C7.53330199 46.94687526 5.81602874 46.37164685 3 44 C0.1309978 38.5742562 -0.41460206 34.29652947 -0.29296875 28.22265625 C-0.28872391 27.41130722 -0.28447906 26.59995819 -0.28010559 25.76402283 C-0.26343867 23.19649744 -0.22581048 20.62978436 -0.1875 18.0625 C-0.1724376 16.31186037 -0.15875193 14.56120832 -0.14648438 12.81054688 C-0.11357468 8.54005608 -0.06187726 4.27016531 0 0 Z " fill="#696F70" transform="translate(42,113)"/>
<path d="M0 0 C7.92 0 15.84 0 24 0 C24 1.98 24 3.96 24 6 C18.39 6 12.78 6 7 6 C7 10.62 7 15.24 7 20 C12.28 20 17.56 20 23 20 C23 21.98 23 23.96 23 26 C17.72 26 12.44 26 7 26 C7 30.95 7 35.9 7 41 C12.94 41 18.88 41 25 41 C25 42.98 25 44.96 25 47 C16.75 47 8.5 47 0 47 C0 31.49 0 15.98 0 0 Z " fill="#696F71" transform="translate(331,113)"/>
<path d="M0 0 C7.92 0 15.84 0 24 0 C24 1.98 24 3.96 24 6 C18.39 6 12.78 6 7 6 C7 10.29 7 14.58 7 19 C12.28 19 17.56 19 23 19 C23 20.98 23 22.96 23 25 C17.72 25 12.44 25 7 25 C7 29.95 7 34.9 7 40 C12.94 40 18.88 40 25 40 C25 41.98 25 43.96 25 46 C16.75 46 8.5 46 0 46 C0 30.82 0 15.64 0 0 Z " fill="#6A7070" transform="translate(372,51)"/>
<path d="M0 0 C2.13927594 1.93224924 3.09498011 2.99266217 3.9375 5.75 C4.0152346 8.08203812 4.02717728 10.41839059 3.9375 12.75 C1.6275 12.75 -0.6825 12.75 -3.0625 12.75 C-3.3925 10.44 -3.7225 8.13 -4.0625 5.75 C-5.9496875 5.6571875 -5.9496875 5.6571875 -7.875 5.5625 C-8.58269531 5.52769531 -9.29039062 5.49289063 -10.01953125 5.45703125 C-12.74137211 5.8473526 -13.41661758 6.55855775 -15.0625 8.75 C-15.52603438 11.58693059 -15.52603438 11.58693059 -15.4609375 14.80859375 C-15.46480469 15.99904297 -15.46867188 17.18949219 -15.47265625 18.41601562 C-15.46105469 19.66060547 -15.44945312 20.90519531 -15.4375 22.1875 C-15.44910156 23.42822266 -15.46070313 24.66894531 -15.47265625 25.94726562 C-15.46878906 27.13900391 -15.46492187 28.33074219 -15.4609375 29.55859375 C-15.45755371 30.64970459 -15.45416992 31.74081543 -15.45068359 32.86499023 C-15.02343057 36.04036692 -14.19835325 37.41441867 -12.0625 39.75 C-8.65113524 39.8115942 -8.65113524 39.8115942 -5.0625 38.75 C-3.47209161 36.46858658 -2.89743456 34.45125887 -2.0625 31.75 C0.2475 31.75 2.5575 31.75 4.9375 31.75 C4.60212741 38.23386998 3.61101958 41.18775469 -1.0625 45.75 C-6.28204752 47.48984917 -11.9075678 47.66699243 -17 45.5 C-20.42379205 42.59496432 -22.21733729 40.15529194 -23.0625 35.75 C-23.31673654 31.12828778 -23.29378218 26.50298136 -23.3125 21.875 C-23.333125 20.60785156 -23.35375 19.34070313 -23.375 18.03515625 C-23.38015625 16.80925781 -23.3853125 15.58335938 -23.390625 14.3203125 C-23.3999707 13.20414551 -23.40931641 12.08797852 -23.41894531 10.93798828 C-23.00911817 7.27256171 -21.9629542 4.89454258 -20.0625 1.75 C-14.38278713 -2.50978465 -6.44550113 -2.63081679 0 0 Z " fill="#696F70" transform="translate(239.0625,51.25)"/>
<path d="M0 0 C2.13927594 1.93224924 3.09498011 2.99266217 3.9375 5.75 C4.0152346 8.08203812 4.02717728 10.41839059 3.9375 12.75 C1.6275 12.75 -0.6825 12.75 -3.0625 12.75 C-3.3925 10.44 -3.7225 8.13 -4.0625 5.75 C-5.9496875 5.6571875 -5.9496875 5.6571875 -7.875 5.5625 C-8.58269531 5.52769531 -9.29039063 5.49289063 -10.01953125 5.45703125 C-12.74137211 5.8473526 -13.41661758 6.55855775 -15.0625 8.75 C-15.52603438 11.58693059 -15.52603438 11.58693059 -15.4609375 14.80859375 C-15.46480469 15.99904297 -15.46867187 17.18949219 -15.47265625 18.41601562 C-15.46105469 19.66060547 -15.44945313 20.90519531 -15.4375 22.1875 C-15.44910156 23.42822266 -15.46070312 24.66894531 -15.47265625 25.94726562 C-15.46878906 27.13900391 -15.46492188 28.33074219 -15.4609375 29.55859375 C-15.45755371 30.64970459 -15.45416992 31.74081543 -15.45068359 32.86499023 C-15.02343057 36.04036692 -14.19835325 37.41441867 -12.0625 39.75 C-8.65113524 39.8115942 -8.65113524 39.8115942 -5.0625 38.75 C-3.47209161 36.46858658 -2.89743456 34.45125887 -2.0625 31.75 C0.2475 31.75 2.5575 31.75 4.9375 31.75 C4.60212741 38.23386998 3.61101958 41.18775469 -1.0625 45.75 C-6.66254123 47.61668041 -12.11427851 47.63555522 -17.5 45.1875 C-22.43476997 40.49345052 -23.24081653 35.9742453 -23.4609375 29.37109375 C-23.46886204 26.97656287 -23.4606098 24.58193248 -23.4375 22.1875 C-23.44910156 20.98158203 -23.46070312 19.77566406 -23.47265625 18.53320312 C-23.46878906 17.36595703 -23.46492188 16.19871094 -23.4609375 14.99609375 C-23.45755371 13.94091553 -23.45416992 12.8857373 -23.45068359 11.79858398 C-22.8431875 7.02763828 -20.88350784 2.77496454 -17.0625 -0.25 C-11.57866488 -2.07794504 -5.36753079 -2.1908289 0 0 Z " fill="#696F70" transform="translate(119.0625,51.25)"/>
<path d="M0 0 C7.92 0 15.84 0 24 0 C24 1.98 24 3.96 24 6 C18.06 6 12.12 6 6 6 C6 10.29 6 14.58 6 19 C11.61 19 17.22 19 23 19 C23 20.98 23 22.96 23 25 C17.39 25 11.78 25 6 25 C6 29.95 6 34.9 6 40 C11.94 40 17.88 40 24 40 C24 41.98 24 43.96 24 46 C16.08 46 8.16 46 0 46 C0 30.82 0 15.64 0 0 Z " fill="#697071" transform="translate(216,176)"/>
<path d="M0 0 C2.31 0 4.62 0 7 0 C16 31.07423581 16 31.07423581 16 36 C16.66 36 17.32 36 18 36 C18.10884521 35.34588135 18.21769043 34.6917627 18.32983398 34.01782227 C19.56504612 26.88685 21.20257563 19.92918651 23.0625 12.9375 C23.33126953 11.90689453 23.60003906 10.87628906 23.87695312 9.81445312 C25.86157464 2.27685073 25.86157464 2.27685073 27 0 C29.31 0 31.62 0 34 0 C30.44804369 15.54912344 25.65132916 30.75364579 21 46 C18.36 46 15.72 46 13 46 C10.91586936 40.60865024 9.09979063 35.22602658 7.51953125 29.66796875 C7.30181564 28.90954178 7.08410004 28.15111481 6.85978699 27.3697052 C6.40529047 25.78282791 5.9524518 24.19547492 5.5012207 22.60766602 C4.80894699 20.17501473 4.10888174 17.74469515 3.40820312 15.31445312 C2.96567757 13.76575872 2.52360397 12.2169351 2.08203125 10.66796875 C1.87270462 9.94296677 1.66337799 9.21796478 1.44770813 8.47099304 C0.62226393 5.54796025 0 3.05400247 0 0 Z " fill="#686E6F" transform="translate(175,176)"/>
<path d="M0 0 C7.59 0 15.18 0 23 0 C23 1.98 23 3.96 23 6 C17.72 6 12.44 6 7 6 C7 10.62 7 15.24 7 20 C11.95 20 16.9 20 22 20 C22 21.98 22 23.96 22 26 C17.05 26 12.1 26 7 26 C7 32.93 7 39.86 7 47 C4.69 47 2.38 47 0 47 C0 31.49 0 15.98 0 0 Z " fill="#696F71" transform="translate(12,113)"/>
<path d="M0 0 C2.31 0 4.62 0 7 0 C10.05746968 5.89741187 12.79433329 11.73126302 15 18 C17.86698759 14.59060935 19.5083429 10.82972984 21.1875 6.75 C21.46013672 6.1003125 21.73277344 5.450625 22.01367188 4.78125 C22.68076842 3.18958104 23.34107445 1.59506897 24 0 C26.31 0 28.62 0 31 0 C29.61473146 4.53685371 28.14069015 8.91071534 25.9921875 13.1484375 C20.39113816 24.23861931 18.78030328 33.61459767 19 46 C16.69 46 14.38 46 12 46 C12.08314453 44.50339844 12.08314453 44.50339844 12.16796875 42.9765625 C12.41104321 28.64366867 7.02245291 17.11836844 0.99389648 4.328125 C0 2 0 2 0 0 Z " fill="#696F6F" transform="translate(370,176)"/>
<path d="M0 0 C9.9 0 19.8 0 30 0 C30 1.98 30 3.96 30 6 C26.04 6 22.08 6 18 6 C18 19.53 18 33.06 18 47 C15.69 47 13.38 47 11 47 C11 33.47 11 19.94 11 6 C7.37 6 3.74 6 0 6 C0 4.02 0 2.04 0 0 Z " fill="#687071" transform="translate(115,113)"/>
<path d="M0 0 C10.23 0 20.46 0 31 0 C31 1.98 31 3.96 31 6 C27.04 6 23.08 6 19 6 C19 19.2 19 32.4 19 46 C16.69 46 14.38 46 12 46 C12 32.8 12 19.6 12 6 C8.04 6 4.08 6 0 6 C0 4.02 0 2.04 0 0 Z " fill="#6A6F70" transform="translate(337,176)"/>
<path d="M0 0 C2.31 0 4.62 0 7 0 C7 13.2 7 26.4 7 40 C12.28 40 17.56 40 23 40 C23 41.98 23 43.96 23 46 C15.41 46 7.82 46 0 46 C0 30.82 0 15.64 0 0 Z " fill="#6A7071" transform="translate(340,51)"/>
<path d="M0 0 C2.31 0 4.62 0 7 0 C7 15.18 7 30.36 7 46 C4.69 46 2.38 46 0 46 C0 30.82 0 15.64 0 0 Z " fill="#6A6F70" transform="translate(323,176)"/>
<path d="M0 0 C2.31 0 4.62 0 7 0 C7 15.18 7 30.36 7 46 C4.69 46 2.38 46 0 46 C0 30.82 0 15.64 0 0 Z " fill="#6B7071" transform="translate(160,176)"/>
</svg>
